<svg xmlns="http://www.w3.org/2000/svg" xmlns:xlink="http://www.w3.org/1999/xlink" id="Layer_1" x="0" y="0" version="1.1" viewBox="0 0 40 40" xml:space="preserve" style="enable-background:new 0 0 40 40"><style type="text/css">.st0{fill:#ff13dc;fill-opacity:0}.st1{fill:#6e6e6e}</style><rect id="Canvas" width="34.6" height="34.6" x="3" y="2" class="st0"/><rect width="7.7" height="13.5" x="24.1" y="9.7" class="st1"/><path d="M36.6,3.9H4c-0.5,0-1,0.4-1,1V28c0,0.5,0.4,1,1,1h12.5v4.8c0,0.5-0.4,1-1,1h-1.9c-0.5,0-1,0.4-1,0.9	c0,0,0,0,0,0v1H28v-1c0-0.5-0.4-1-1-1h-1.9c-0.5,0-1-0.4-1-1v-4.8h12.5c0.5,0,1-0.4,1-1V4.9C37.6,4.4,37.2,3.9,36.6,3.9z M33.8,25.1	H6.8V7.8h26.9V25.1z" class="st1"/></svg>