<svg xmlns="http://www.w3.org/2000/svg" xmlns:xlink="http://www.w3.org/1999/xlink" id="Layer_1" x="0" y="0" version="1.1" viewBox="0 0 40 40" xml:space="preserve" style="enable-background:new 0 0 40 40"><style type="text/css">.st0{fill:#ff13dc;fill-opacity:0}.st1{fill:#6e6e6e}</style><rect id="Canvas" width="35.6" height="35.6" x="2" y="2" class="st0"/><path d="M34.9,17.1L20.1,2.3C19.9,2.1,19.6,2,19.4,2H6.9C6.4,2,6,2.4,6,3v12.4c0,0.3,0.1,0.5,0.3,0.7l14.8,14.8	c0.4,0.4,1,0.4,1.4,0l12.4-12.4C35.3,18.1,35.3,17.5,34.9,17.1z M11.9,10.5c-1.4,0-2.6-1.1-2.6-2.6c0-1.4,1.1-2.6,2.6-2.6	c1.4,0,2.6,1.1,2.6,2.6S13.3,10.5,11.9,10.5L11.9,10.5z" class="st1"/><path d="M34.9,23.2l-0.8-0.8L22.5,34.1c-0.4,0.4-1,0.4-1.4,0L6.2,19.3C6.1,19.1,6,18.9,6,18.6v3c0,0.3,0.1,0.5,0.3,0.7	l14.8,14.8c0.4,0.4,1,0.4,1.4,0l12.4-12.4C35.3,24.3,35.3,23.6,34.9,23.2z" class="st1"/></svg>